<?xml version="1.0" encoding="UTF-8"?>
<!DOCTYPE svg PUBLIC "-//W3C//DTD SVG 1.1//EN" "http://www.w3.org/Graphics/SVG/1.1/DTD/svg11.dtd">
<svg version="1.1" xmlns="http://www.w3.org/2000/svg" xmlns:xlink="http://www.w3.org/1999/xlink" x="0" y="0" width="100" height="100" viewBox="0, 0, 100, 100">
  <g id="Layer_1">
    <path d="M77.697,6.88 C81.814,7.016 85.726,7.76 88.862,10.596 C95.808,17.543 92.851,37.157 81.533,57.41 C69.768,78.465 53.077,93.129 39.765,93.129 C25.953,93.129 17.312,88.808 14.24,82.152 C11.558,76.34 13.392,68.872 19.255,63.009 C25.241,57.022 32.385,53.661 37.978,53.661 C42.429,53.661 44.608,55.598 44.608,59.696 C44.608,63.66 42.537,65.731 39.765,65.731 C36.992,65.731 34.921,63.66 34.921,59.696 L25.55,59.696 C25.55,68.835 31.817,75.102 39.765,75.102 C47.712,75.102 53.979,68.835 53.979,59.696 C53.979,50.161 47.374,44.289 37.978,44.289 C29.724,44.289 20.274,48.736 12.629,56.382 C4.142,64.869 1.295,76.464 5.732,86.079 C8.971,93.088 15.486,97.639 22.661,100 L-0,100 L-0,59.696 L6.333,59.696 C6.333,46.382 20.997,29.69 42.05,17.925 C53.011,11.853 65.036,7.107 77.697,6.88 z M100,36.737 C97.66,45.555 94.225,54.042 89.714,61.981 C83.637,72.857 75.97,82.688 67.796,89.869 C63.001,93.956 57.857,97.663 51.961,100 L100,100 L100,36.737 z M60.675,-0 L-0,-0 L-0,46.304 C2.44,40.96 5.648,36.031 9.593,31.662 C16.774,23.488 26.604,15.821 37.479,9.744 C44.847,5.717 52.547,2.194 60.675,-0 z M100,-0 L89.435,-0 C91.657,0.975 93.683,2.351 95.488,3.969 C97.432,5.993 99,8.327 100,10.96 L100,-0 z" fill="#000000"/>
  </g>
</svg>
