<svg xmlns="http://www.w3.org/2000/svg" width="100" height="100" viewBox="0, 0, 100, 100"><path d="M77.696 6.88c4.118.136 8.03.88 11.166 3.716 6.946 6.947 3.989 26.561-7.329 46.814-11.765 21.055-28.456 35.719-41.768 35.719-13.812 0-22.453-4.321-25.525-10.977-2.682-5.812-.848-13.28 5.015-19.143 5.986-5.987 13.13-9.348 18.723-9.348 4.451 0 6.63 1.937 6.63 6.035 0 3.964-2.071 6.035-4.843 6.035-2.773 0-4.844-2.071-4.844-6.035H25.55c0 9.139 6.267 15.406 14.215 15.406 7.947 0 14.214-6.267 14.214-15.406 0-9.535-6.605-15.407-16.001-15.407-8.254 0-17.704 4.447-25.349 12.093-8.487 8.487-11.334 20.082-6.897 29.697 3.239 7.009 9.754 11.56 16.929 13.921H0V59.696h6.333c0-13.314 14.664-30.006 35.717-41.771C53.011 11.853 65.036 7.107 77.696 6.88zM100 36.737c-2.34 8.818-5.775 17.305-10.286 25.244-6.077 10.876-13.744 20.707-21.918 27.888-4.795 4.087-9.939 7.794-15.835 10.131H100V36.737zM60.675 0H0v46.304c2.44-5.344 5.648-10.273 9.593-14.642 7.181-8.174 17.011-15.841 27.886-21.918C44.847 5.717 52.547 2.194 60.675 0zM100 0H89.435c2.222.975 4.248 2.351 6.053 3.969C97.432 5.993 99 8.327 100 10.96V0z" fill="#444"/></svg>