<svg xmlns="http://www.w3.org/2000/svg" width="80" height="100" viewBox="0, 0, 80, 100"><path d="M6.509 21.024h66.982c3.595 0 6.509 2.162 6.509 4.829v1.932c0 2.667-2.914 4.829-6.509 4.829H6.509C2.914 32.614 0 30.452 0 27.785v-1.932c0-2.667 2.914-4.829 6.509-4.829zm14.488 23.181c-3.594 0-6.509 2.162-6.509 4.829v1.932c0 2.667 2.915 4.829 6.509 4.829h52.494c3.595 0 6.509-2.162 6.509-4.829v-1.932c0-2.667-2.914-4.829-6.509-4.829H20.997zm0 23.191c-3.594 0-6.509 2.162-6.509 4.829v1.922c0 2.667 2.915 4.829 6.509 4.829h52.494c3.595 0 6.509-2.162 6.509-4.829v-1.922c0-2.667-2.914-4.829-6.509-4.829H20.997z" fill="#444"/></svg>