<svg xmlns="http://www.w3.org/2000/svg" width="100" height="75" viewBox="0, 0, 100, 75"><defs><pattern id="a" patternUnits="userSpaceOnUse" width="40" height="40"><g><path d="M40 0H0v40h40V0z" fill="#BFBFBF"/><path d="M30 0l10 10V0H30zM0 40V30l10 10H0zm30 0h10V30L10 0H0v10" fill="gray"/></g></pattern></defs><g><path d="M0 0h100v75H0V0z" fill="url(#a)"/><path d="M0 0h100v75H0V0z" stroke="#000" fill="none"/><path d="M0 75V0h100v75H0zm50-35.909L4.121 73.5h91.758L50 39.091zm-48-36v68.818L47.879 37.5 2 3.091zm96 0L52.121 37.5 98 71.909V3.091zM95.879 1.5H4.121L50 35.909 95.879 1.5z"/></g></svg>