<?xml version="1.0" encoding="UTF-8"?>
<!DOCTYPE svg PUBLIC "-//W3C//DTD SVG 1.1//EN" "http://www.w3.org/Graphics/SVG/1.1/DTD/svg11.dtd">
<svg version="1.1" xmlns="http://www.w3.org/2000/svg" xmlns:xlink="http://www.w3.org/1999/xlink" x="0" y="0" width="100" height="75" viewBox="0, 0, 100, 75">
  <defs>
    <pattern id="Pattern_1" patternUnits="userSpaceOnUse" x="0" y="0" width="40" height="40">
      <g transform="translate(-0, -0)">
        <path d="M40,0 L0,0 L0,40 L40,40 L40,0 z" fill="#BFBFBF"/>
        <path d="M30,0 L40,10 L40,0 L30,0 z" fill="#808080"/>
        <path d="M0,40 L0,30 L10,40 L0,40 z" fill="#808080"/>
        <path d="M30,40 L40,40 L40,30 L10,0 L0,0 L0,10" fill="#808080"/>
      </g>
    </pattern>
  </defs>
  <g id="Layer_1">
    <g>
      <path d="M0,0 L100,0 L100,75 L0,75 L0,0 z" fill="url(#Pattern_1)"/>
      <path d="M0,0 L100,0 L100,75 L0,75 L0,0 z" fill-opacity="0" stroke="#000000" stroke-width="1"/>
    </g>
    <path d="M0,75 L0,0 L100,0 L100,75 L0,75 z M50,39.091 L4.121,73.5 L95.879,73.5 L50,39.091 z M2,3.091 L2,71.909 L47.879,37.5 L2,3.091 z M98,3.091 L52.121,37.5 L98,71.909 L98,3.091 z M95.879,1.5 L4.121,1.5 L50,35.909 L95.879,1.5 z" fill="#000000"/>
  </g>
</svg>
